<?xml version="1.0" encoding="UTF-8" standalone="no"?>
<svg
   width="800px"
   height="800px"
   viewBox="0 0 128 128"
   fill="none"
   version="1.1"
   id="svg23"
   sodipodi:docname="controller_body.svg"
   inkscape:version="1.4.3 (0d15f75042, 2025-12-25)"
   xmlns:inkscape="http://www.inkscape.org/namespaces/inkscape"
   xmlns:sodipodi="http://sodipodi.sourceforge.net/DTD/sodipodi-0.dtd"
   xmlns:xlink="http://www.w3.org/1999/xlink"
   xmlns="http://www.w3.org/2000/svg"
   xmlns:svg="http://www.w3.org/2000/svg">
  <defs
     id="defs23">
    <linearGradient
       id="linearGradient48"
       inkscape:collect="always">
      <stop
         style="stop-color:#ffffff;stop-opacity:1;"
         offset="0"
         id="stop48" />
      <stop
         style="stop-color:#ffffff;stop-opacity:0.96470588;"
         offset="0.39505708"
         id="stop50" />
      <stop
         style="stop-color:#ffffff;stop-opacity:0;"
         offset="1"
         id="stop49" />
    </linearGradient>
    <linearGradient
       inkscape:collect="always"
       xlink:href="#linearGradient48"
       id="linearGradient49"
       x1="63.999962"
       y1="8.9890842"
       x2="63.999962"
       y2="121.98901"
       gradientUnits="userSpaceOnUse" />
  </defs>
  <sodipodi:namedview
     id="namedview23"
     pagecolor="#505050"
     bordercolor="#eeeeee"
     borderopacity="1"
     inkscape:showpageshadow="0"
     inkscape:pageopacity="0"
     inkscape:pagecheckerboard="0"
     inkscape:deskcolor="#505050"
     inkscape:zoom="1.29"
     inkscape:cx="285.65891"
     inkscape:cy="418.21705"
     inkscape:window-width="2560"
     inkscape:window-height="1440"
     inkscape:window-x="0"
     inkscape:window-y="0"
     inkscape:window-maximized="1"
     inkscape:current-layer="svg23" />
  <path
     fill-rule="evenodd"
     clip-rule="evenodd"
     d="M46.9088 28.9459C51.3376 27.953 60.1282 27.4632 64.9944 27.4632C70.0742 27.4632 76.8141 27.7589 82.1082 28.9459C84.3602 29.4509 85.5656 30.2889 86.1198 31.36C86.6598 32.4035 86.503 33.5421 86.3807 34.4059C85.8943 37.8408 85.2139 41.96 84.4378 46.6582L84.4355 46.6722C84.0301 49.1261 83.0062 50.8363 81.6579 51.93C80.3146 53.0196 78.6911 53.4632 77.1404 53.4632H50.9049C48.8775 53.4632 47.305 52.9509 46.1663 52.0723C45.0259 51.1924 44.3619 49.9767 44.0986 48.6487C43.5914 46.0902 42.8567 42.0089 42.0317 37.4263C41.9121 36.762 41.7906 36.0871 41.6677 35.4049C41.2523 33.1002 41.6171 31.607 42.693 30.6209C43.2096 30.1476 43.8565 29.8246 44.5646 29.5736C45.2717 29.323 46.0719 29.1336 46.9088 28.9459ZM64.9944 28.4632C60.1438 28.4632 51.4442 28.9539 47.1276 29.9217C46.2877 30.11 45.5421 30.2881 44.8986 30.5162C44.2561 30.7439 43.7478 31.0108 43.3687 31.3582C42.6534 32.0137 42.2658 33.0857 42.6518 35.2275C42.7748 35.9101 42.8963 36.585 43.0159 37.2491C43.8413 41.8342 44.5742 45.9051 45.0795 48.4542C45.3022 49.5772 45.8528 50.5674 46.7772 51.2806C47.7033 51.9951 49.0458 52.4632 50.9049 52.4632H77.1404C78.5048 52.4632 79.8936 52.0735 81.028 51.1533C82.1575 50.2372 83.0769 48.7611 83.4489 46.5092L83.4496 46.5048C84.2269 41.7988 84.9058 37.689 85.3905 34.2657C85.5184 33.3623 85.6045 32.5401 85.2317 31.8195C84.8731 31.1265 84.01 30.3972 81.8894 29.9217C76.7065 28.7596 70.0565 28.4632 64.9944 28.4632Z"
     fill="#FFFFFF"
     id="path1"
     style="fill:#ffffff;fill-opacity:1" />
  <path
     fill-rule="evenodd"
     clip-rule="evenodd"
     d="M31.988 29.9758C36.326 29.4841 40.442 29.4094 42.9147 29.4923C43.1637 29.5007 43.3686 29.6911 43.3951 29.9389C43.4216 30.1867 43.2615 30.4161 43.0199 30.4769C42.5338 30.5992 42.187 31.1095 42.0026 31.97C41.8275 32.7869 41.8465 33.728 41.9219 34.3493C42.2525 36.0145 43.0998 40.5751 43.8822 45.691C44.6913 50.9821 42.5421 54.721 41.2925 55.9781L41.2915 55.9792C39.6225 57.6581 37.8917 59.3994 35.4656 62.8164C32.9957 66.295 29.4644 74.1247 26.2878 81.7599C23.9013 87.4961 21.7339 93.0748 20.3887 96.5371C19.9479 97.6717 19.5954 98.5791 19.3524 99.1902C19.3473 99.203 19.3417 99.2157 19.3355 99.228C19.3118 99.2757 19.2866 99.3289 19.2593 99.3863C19.1705 99.5735 19.0602 99.806 18.9117 100.041L22.0327 100.463C22.575 100.459 22.9875 100.354 23.3331 100.163C23.6886 99.9673 24.0089 99.6617 24.333 99.2073C24.8934 98.4214 25.4038 97.2877 26.1122 95.7142C26.2485 95.4114 26.3921 95.0923 26.5448 94.7563C27.7527 92.0989 28.99 88.9185 30.06 86.1678L30.1529 85.929C30.6971 84.5303 31.1965 83.2503 31.6214 82.2273C32.0394 81.2209 32.4045 80.4144 32.681 79.9971C33.3818 78.9395 34.4096 77.3999 36.1734 76.32C37.9474 75.2339 40.4088 74.6441 43.9269 75.3367H83.9965C86.8022 74.6423 89.2767 74.9817 91.3177 76.1469C93.3659 77.3163 94.93 79.2901 95.9617 81.7713C97.151 84.6315 97.9048 86.7676 98.6103 88.8098C98.6771 89.0034 98.7436 89.1961 98.8099 89.3885C99.4425 91.2239 100.064 93.0267 100.964 95.2775C101.058 95.5112 101.148 95.7437 101.238 95.9737C101.701 97.1632 102.138 98.2843 102.81 99.1353C103.199 99.6278 103.655 100.009 104.223 100.245C104.789 100.479 105.502 100.583 106.427 100.468L109.074 100.019C108.933 99.7911 108.827 99.5675 108.741 99.3863C108.713 99.3289 108.688 99.2757 108.664 99.228C108.658 99.2157 108.653 99.203 108.648 99.1902C108.405 98.5791 108.052 97.6719 107.611 96.5374C106.266 93.0751 104.099 87.4963 101.712 81.7599C98.5356 74.1247 95.0043 66.295 92.5344 62.8164C90.1083 59.3994 88.3775 57.6581 86.7086 55.9792L86.7075 55.9781C85.4579 54.721 83.3087 50.9821 84.1178 45.691C84.9002 40.5752 85.7475 36.0145 86.0781 34.3493C86.1535 33.728 86.1725 32.7869 85.9974 31.97C85.813 31.1095 85.4662 30.5992 84.9801 30.4769C84.7385 30.4161 84.5784 30.1867 84.6049 29.9389C84.6314 29.6911 84.8363 29.5007 85.0853 29.4923C87.558 29.4094 91.674 29.4841 96.012 29.9758C100.34 30.4665 104.939 31.3776 108.346 32.9908C108.444 33.0369 108.523 33.1133 108.574 33.2085C111.209 38.1782 117.045 51.9357 119.407 67.3809C120.882 77.0311 120.765 84.6111 119.647 90.1087C118.535 95.5772 116.407 99.1001 113.747 100.438C112.023 101.305 110.847 101.394 110.005 100.942C109.974 100.925 109.944 100.908 109.915 100.89L106.584 101.456C106.577 101.457 106.569 101.458 106.562 101.459C105.493 101.593 104.598 101.482 103.84 101.168C103.083 100.855 102.497 100.352 102.026 99.7553C101.251 98.775 100.75 97.4844 100.29 96.2984C100.205 96.0774 100.12 95.86 100.036 95.6489C99.126 93.3744 98.4971 91.5499 97.8647 89.715C97.7983 89.5224 97.7318 89.3297 97.6651 89.1363C96.9623 87.1017 96.2161 84.9878 95.0383 82.1552C94.07 79.8263 92.6341 78.05 90.8218 77.0153C89.017 75.9849 86.7916 75.6625 84.1804 76.3215C84.1404 76.3316 84.0993 76.3367 84.058 76.3367H43.8778C43.845 76.3367 43.8122 76.3335 43.7799 76.327C40.4463 75.6613 38.2334 76.2313 36.6955 77.1729C35.1393 78.1256 34.216 79.4911 33.5146 80.5495C33.3011 80.8717 32.9715 81.5836 32.5449 82.6108C32.1252 83.6214 31.6301 84.8902 31.0849 86.2916L30.9876 86.5417C29.9208 89.284 28.6749 92.4868 27.4552 95.1701C27.3091 95.4915 27.1697 95.8016 27.0355 96.1C26.3307 97.6677 25.7702 98.9143 25.1471 99.7879C24.7662 100.322 24.3414 100.749 23.8157 101.039C23.287 101.33 22.6915 101.463 22 101.463C21.9776 101.463 21.9552 101.462 21.933 101.459L18.0174 100.929C18.0099 100.934 18.0024 100.938 17.9949 100.942C17.1532 101.394 15.9771 101.305 14.2531 100.438C11.5931 99.1001 9.4646 95.5772 8.35275 90.1087C7.23499 84.6111 7.11774 77.0311 8.5935 67.3809C10.9555 51.9357 16.7914 38.1782 19.426 33.2085C19.4765 33.1133 19.5564 33.0369 19.6539 32.9908C23.0614 31.3776 27.6597 30.4665 31.988 29.9758ZM17.6386 99.9887C17.6302 99.9941 17.6219 99.9997 17.6138 100.006C17.5841 100.025 17.5533 100.044 17.5212 100.061C17.1196 100.277 16.3357 100.366 14.7025 99.5447C12.4623 98.4179 10.4258 95.2859 9.3327 89.9095C8.24547 84.5621 8.11775 77.107 9.582 67.5321C11.9009 52.3684 17.6033 38.8363 20.2318 33.8244C23.4746 32.3256 27.8706 31.449 32.1007 30.9695C35.6634 30.5656 39.0747 30.4468 41.5188 30.465C41.2712 30.8615 41.1183 31.3242 41.0248 31.7605C40.8176 32.7269 40.8455 33.7968 40.9317 34.4903C40.9332 34.5023 40.9351 34.5142 40.9375 34.5261C41.2628 36.1626 42.1109 40.7233 42.8937 45.8421C43.6525 50.8044 41.6204 54.2298 40.5833 55.2731C38.8991 56.9675 37.1236 58.7539 34.6502 62.2375C32.1022 65.8261 28.5285 73.7709 25.3645 81.3758C22.9725 87.1252 20.7955 92.7287 19.4512 96.1889C19.0174 97.3053 18.6704 98.1986 18.4307 98.8017C18.4039 98.8559 18.3778 98.9092 18.3522 98.9617C18.1408 99.3946 17.9611 99.7626 17.6386 99.9887ZM110.345 99.9771C110.387 100.008 110.432 100.036 110.479 100.061C110.88 100.277 111.664 100.366 113.298 99.5447C115.538 98.4179 117.574 95.2859 118.667 89.9095C119.755 84.5621 119.882 77.107 118.418 67.5321C116.099 52.3684 110.397 38.8363 107.768 33.8244C104.525 32.3256 100.129 31.449 95.8993 30.9695C92.3366 30.5656 88.9253 30.4468 86.4812 30.465C86.7288 30.8615 86.8817 31.3242 86.9752 31.7605C87.1824 32.7269 87.1544 33.7968 87.0683 34.4903C87.0676 34.4961 87.0667 34.5019 87.0658 34.5076C87.0648 34.5138 87.0637 34.52 87.0625 34.5261C86.7372 36.1626 85.8891 40.7233 85.1063 45.8421C84.3475 50.8044 86.3796 54.2298 87.4167 55.2731C89.1009 56.9675 90.8764 58.7539 93.3498 62.2375C95.8978 65.8261 99.4715 73.7709 102.635 81.3758C105.027 87.1252 107.204 92.7286 108.549 96.1888C108.983 97.3053 109.33 98.1986 109.569 98.8018C109.596 98.8559 109.622 98.9093 109.648 98.9617C109.848 99.3722 110.02 99.7243 110.312 99.9524C110.324 99.9602 110.335 99.9684 110.345 99.9771Z"
     fill="#000000"
     id="path2"
     style="fill:url(#linearGradient49);fill-opacity:1" />
  <path
     fill-rule="evenodd"
     clip-rule="evenodd"
     d="M59.5 57.9632C59.5 57.6871 59.7239 57.4632 60 57.4632H68C68.2761 57.4632 68.5 57.6871 68.5 57.9632C68.5 58.2394 68.2761 58.4632 68 58.4632H60C59.7239 58.4632 59.5 58.2394 59.5 57.9632Z"
     fill="#000000"
     id="path22"
     style="fill:#ffffff;fill-opacity:1" />
  <path
     fill-rule="evenodd"
     clip-rule="evenodd"
     d="M57.5 55.9632C57.5 55.6871 57.7239 55.4632 58 55.4632H70C70.2761 55.4632 70.5 55.6871 70.5 55.9632C70.5 56.2394 70.2761 56.4632 70 56.4632H58C57.7239 56.4632 57.5 56.2394 57.5 55.9632Z"
     fill="#000000"
     id="path23"
     style="fill:#ffffff;fill-opacity:1" />
</svg>
